<svg width="176" height="161" viewBox="0 0 176 161" fill="none" xmlns="http://www.w3.org/2000/svg">
<path d="M81.9115 148.274C81.2586 147.626 80.6212 146.99 80.0465 146.44C79.7637 146.17 79.4924 145.918 79.2935 145.746C79.1963 145.661 79.1167 145.597 79.0965 145.582C79.0841 145.57 79.0998 145.6 79.3983 145.78C80.2198 146.289 81.426 146.57 82.2021 146.547C82.9996 146.537 83.3882 146.391 83.5399 146.345C83.8223 146.231 83.388 146.419 82.8512 146.775C81.5719 147.467 80.4465 148.884 76.0859 150.26C74.1454 150.812 69.6486 152.844 65.7077 154.083C61.374 155.574 56.4673 155.046 53.249 154.146C49.9219 153.254 47.5052 152.279 45.2868 151.642C42.0936 150.687 38.7509 149.358 35.4942 146.938C32.2752 144.757 29.2689 140.132 28.3674 137.949C26.5508 134.004 26.7673 132.128 26.444 131.022C26.3186 130.428 26.2988 130.196 26.2646 129.937C26.2392 129.725 26.2185 129.515 26.2041 129.352C26.1723 128.996 26.1527 128.708 26.1344 128.42C26.0985 127.849 26.0731 127.318 26.0502 126.791C25.939 123.988 26.497 124.184 26.5301 123.402C26.6322 121.295 25.9498 120.088 25.9342 118.566C25.8894 114.007 25.8051 109.648 25.7119 105.275C25.7092 104.919 25.6906 104.608 25.6761 104.442C25.6722 104.285 25.6256 104.251 25.8333 104.705C25.9439 104.93 26.1437 105.305 26.5525 105.763C26.9535 106.223 27.6064 106.714 28.1786 106.972C29.3813 107.48 29.5902 107.305 28.7868 107.234C28.1369 107.141 27.4973 107.026 26.8279 106.878C21.668 105.603 20.5928 103.861 20.4139 103.285C20.2339 102.58 20.7264 102.337 19.4757 101.179C17.2237 98.8666 17.143 99.072 16.8829 99.5639C16.6904 100.075 16.6951 100.989 15.7508 100.446C15.3286 100.034 14.9878 99.7008 14.7849 99.5151C10.0153 95.1938 6.93958 90.9104 3.77554 86.3401C4.82312 87.4193 5.88425 88.477 6.97279 89.5346C5.33767 87.4284 3.38551 84.2039 6.48507 87.3758C6.01585 86.5098 5.61984 85.6766 5.15771 84.7852C5.06621 84.8135 4.94882 84.7902 4.81138 84.7258C4.12617 84.3027 3.07778 82.8565 2.45961 81.5122C1.81526 80.1675 1.46029 78.9949 1.20685 78.8179C0.592857 78.3687 1.52295 81.6059 1.56354 81.6423C1.25043 81.6328 0.382377 78.7537 0.21771 76.1705C-0.0018771 73.5442 0.0329054 71.0047 0.0132958 69.8137C0.00792661 69.4481 0.00775178 69.2007 0.00819423 69.1042C0.0335598 67.0063 1.13533 68.7628 0.966806 67.0081C0.738913 64.0037 -1.24037 66.0151 1.40749 61.8943C0.573569 60.2454 1.015 60.1048 1.20211 58.0213C1.2287 57.7455 0.714755 57.925 0.710289 57.8022C0.612818 54.5499 1.32446 57.112 1.37624 57.097C2.22956 56.8765 2.23828 53.4677 2.56101 52.6079C2.66387 52.2926 2.76838 51.9851 2.92567 51.5851C8.57908 42.2001 14.9937 41.3427 22.7623 37.3232C23.6044 36.948 25.2238 36.1292 26.9048 35.3514C29.1158 34.3615 31.3417 34.1512 32.3787 34.1356C34.3137 34.1632 33.3096 34.841 34.2972 35.1048C35.8297 33.6072 37.4912 33.4307 40.8885 34.7854C42.3275 33.8779 42.0513 34.6823 44.5943 34.9059C44.9883 34.9465 45.4288 34.9619 45.9386 34.9917C48.2203 35.1554 51.2503 35.3671 52.9923 37.9987C52.4805 37.5025 52.2556 37.3872 51.9772 37.2038C51.7186 37.0441 51.4942 36.9295 51.2878 36.8371C50.8795 36.656 50.5434 36.5637 50.1963 36.4881C49.5014 36.3463 48.7598 36.2325 47.2342 35.9275C47.0412 35.8905 46.5223 35.7509 45.7961 35.6042C42.7207 34.9035 36.0815 34.6785 36.6709 35.6508C37.0383 36.2129 40.392 35.9515 40.5148 36.0955C41.1821 36.7978 39.2764 37.3269 37.6914 36.9702C38.1024 36.8695 38.5978 36.7783 39.043 36.6913C35.4159 35.6736 37.8416 38.7768 35.1306 36.1099C34.7832 35.7915 34.9204 35.4562 34.3311 35.1257C34.2156 35.2674 34.9283 35.6044 34.3203 35.6758C33.7107 35.7431 32.483 35.1559 32.3471 35.7299C32.1582 36.535 34.6492 36.0955 34.8489 36.1659C34.8509 36.161 34.853 36.1561 34.855 36.1512C36.5304 36.5747 33.0386 36.6423 32.8907 36.7704C31.8802 37.3566 32.5917 37.6607 31.1666 38.2605C30.555 38.5226 29.2055 38.7672 28.4978 39.0966C28.2004 39.2252 27.9446 39.3421 27.7669 39.4385C27.0088 39.8539 28.3886 39.6708 27.8907 39.9767C27.3954 40.2813 26.6203 40.3072 26.0436 40.6753C25.7975 40.8339 25.9894 41.2154 25.869 41.2873C24.5845 42.0676 25.094 40.8459 23.8886 41.4837C23.0941 41.8953 20.883 43.9764 22.7816 43.273C21.9627 43.7872 21.1637 44.2836 20.37 44.8042C20.9539 44.623 21.5391 44.4043 22.1254 44.2642C20.4476 44.9238 20.1153 45.9639 19.2109 46.565C18.3142 47.1675 17.0122 46.9565 16.2872 47.9804C14.7742 50.1233 19.5917 46.3268 20.4635 46.1298C20.7593 46.033 20.0839 47.213 19.9471 47.3208C19.3132 47.7956 18.2665 47.8746 17.7798 48.2232C16.0472 49.4782 15.4179 50.7731 14.2767 52.0197C13.2698 53.1012 12.5812 54.377 12.6509 54.6522C12.2083 57.668 12.297 64.3467 12.8424 68.7091C12.9075 69.3123 12.9668 69.8943 13.0227 70.4512C13.291 73.2013 12.72 74.6602 12.8963 75.6041C13.1 76.6831 13.4019 77.0627 13.6693 77.3365C13.936 77.5955 14.1914 77.7308 14.277 77.8221C14.2805 77.8259 14.2839 77.8296 14.2871 77.8331C16.3576 80.6592 19.0238 84.7379 20.8641 86.7836C21.8884 87.9499 23.1447 88.5773 23.6576 88.7841C23.9431 88.9682 24.1398 89.1057 24.2585 89.2062C26.1662 90.8856 26.7979 91.4355 27.6029 91.8479C28.3633 92.2426 29.3003 92.5231 30.5868 92.6701C30.8671 92.7513 32.3416 92.6494 34.7132 93.7742C37.1509 94.9314 38.7833 97.3313 39.3496 98.7405C40.526 101.685 40.4319 103.152 40.5548 104.636C40.6429 106.605 40.7202 108.453 40.7897 110.103C40.9188 113.175 40.2869 114.66 40.3327 115.291C40.5278 118.006 41.0876 117.257 41.1181 119.457C41.1355 120.646 40.5794 120.889 40.564 121.048C40.4372 122.449 41.1884 122.694 41.2628 123.768C41.3227 124.624 41.3729 125.475 41.4193 126.282C41.4432 126.693 41.4649 127.075 41.4882 127.436C41.4996 127.614 41.5113 127.78 41.5199 127.896C41.5242 127.955 41.528 128.002 41.5266 128.006C41.5222 128.001 41.527 127.99 41.4604 127.687C41.8514 129.912 42.1848 131.522 41.9238 130.911C42.636 132.441 42.8104 132.863 43.1948 133.447C43.5499 133.981 43.9934 134.463 44.6217 134.936C44.8242 135.087 44.627 135.347 44.7827 135.431C45.489 135.78 45.4298 135.149 46.1806 135.513C47.172 135.971 48.327 136.434 49.639 136.854C50.83 137.225 51.9702 137.631 53.0474 138.019C53.3227 138.118 53.3171 138.56 53.9277 138.765C54.5323 138.966 55.1148 138.743 55.9556 139.026C58.1639 139.771 59.5014 140.434 60.6368 140.236C60.7988 140.207 60.9018 139.836 61.071 139.654C61.1685 139.594 61.2721 139.543 61.384 139.508C63.2926 138.917 66.2923 138.236 68.1717 137.517C69.4049 137.057 70.6505 136.546 72.4233 136.063C72.0159 136.185 72.4473 136.035 72.9427 135.696C73.4656 135.36 74.1494 134.871 75.0101 134.304C75.8921 133.742 76.8921 133.058 78.6414 132.402C80.2009 131.764 83.8578 131.149 86.8955 132.997C88.5792 134.037 89.009 134.552 89.6805 135.128C90.2875 135.681 90.805 136.185 91.3071 136.681C92.3359 137.703 92.8428 138.876 93.3369 139.377C93.7576 139.804 93.939 139.898 94.0673 139.916C94.2736 139.943 94.3358 139.77 95.022 140.423C96.3352 141.668 97.658 142.842 98.8844 143.764C100.041 144.688 101.442 145.308 101.216 145.203C105.925 146.105 113.399 146.166 116.403 145.519C119.759 144.516 122.334 143.663 123.743 142.672C123.904 142.561 124.067 142.451 124.227 142.342C126.146 141.043 128.073 139.736 129.674 138.464C130.463 137.837 131.172 137.206 131.578 136.752C131.778 136.533 131.895 136.355 131.861 136.377C131.841 136.401 131.596 136.647 131.406 137.514C131.552 136.702 131.682 135.829 131.806 134.981C132.068 133.109 132.694 132.781 132.787 131.385C132.913 128.881 132.138 128.391 132.03 125.787C131.93 123.736 132.564 121.25 132.209 119.482C132.121 119.048 131.989 118.728 131.854 118.542C131.382 117.736 130.615 116.918 129.84 115.046C129.007 112.864 127.945 109.837 127.404 105.492C127.313 104.415 127.226 103.136 127.672 101.284C128.042 99.5012 129.635 96.7237 131.974 95.4071C132.621 95.0262 133.002 94.8855 133.319 94.7626C133.54 94.68 133.714 94.6232 133.874 94.5738C134.217 94.4701 134.346 94.4384 134.551 94.3862C134.891 94.3014 135.165 94.2428 135.396 94.194C135.885 94.0925 136.278 94.0194 136.687 93.9454C137.475 93.8032 138.211 93.6806 138.939 93.5598C140.383 93.321 141.789 93.0941 143.159 92.859C144.528 92.624 145.872 92.3812 147.12 92.1181C147.742 91.9868 148.342 91.8494 148.857 91.7125C149.346 91.588 149.876 91.3999 149.757 91.4284C152.301 90.3407 154.398 89.4852 156.303 88.5122C158.145 87.6095 159.853 86.3762 160.062 86.038C162.922 82.6575 163.655 80.8443 163.779 77.1619C163.844 71.2227 164.943 64.8196 164.631 62.878C164.629 62.8038 164.633 62.8278 164.719 63.004C164.303 61.9546 163.78 61.042 162.802 59.5726C161.835 58.1238 160.573 56.2046 159.569 54.2383C159.567 54.0304 158.258 52.4272 156.988 51.2146C155.672 49.9205 154.185 48.5946 152.698 47.2697C152.144 46.7825 153.503 46.841 151.477 45.5909C150.951 45.2696 150.252 44.988 149.379 44.5918C149.084 44.6079 148.516 44.4899 147.513 44.212C145.399 43.6232 142.414 43.3347 139.497 43.3177C134 43.3241 129.432 43.4818 124.653 45.2372C123.841 45.4728 122.649 46.0729 120.115 45.7141C118.874 45.5216 117.356 44.8145 116.364 43.8689C115.349 42.9271 114.827 41.9713 114.496 41.2139C113.755 39.3189 113.844 38.6262 113.748 37.9292C113.696 37.2727 113.681 36.796 113.659 36.3813C113.62 35.5647 113.554 35.0203 113.493 34.7342C112.176 29.9262 111.24 24.6343 109.948 23.8143C108.517 22.3334 107.047 20.9315 105.539 19.6452C101.655 16.3218 97.2518 13.6831 93.2288 12.8569C88.1139 11.7352 82.3044 11.6225 77.3989 12.3208C75.8106 12.5597 75.0951 12.8286 74.2699 13.2621C73.4567 13.6949 72.4743 14.4072 71.4006 15.3621C66.563 19.2909 65.3492 19.9733 63.3257 22.8532C60.5771 26.8629 57.9301 33.6399 55.3675 39.0921C54.9601 39.8432 53.11 39.535 52.6354 38.7531C53.0571 38.1489 53.565 37.6144 54.0688 37.0067C51.9016 35.8713 52.4278 36.0647 53.1944 32.9497C53.6964 31.0344 52.4246 32.3921 52.3597 31.2956C52.1848 29.8777 52.9263 23.1814 54.0505 24.8721C53.9217 24.406 53.7994 23.9704 53.6867 23.5054C54.1841 21.8286 54.7511 20.1664 55.5055 18.5435C56.7845 15.7436 58.6539 13.0734 60.8814 10.8764C61.4746 10.2824 61.2086 9.8838 61.8268 9.29779C62.7427 8.43305 63.5919 7.84656 64.37 7.24478C65.1365 6.64095 65.946 6.05579 66.8715 5.39284C68.0207 4.60782 67.8822 3.99365 69.6635 3.17533C71.5059 2.45238 71.6448 3.12662 74.0163 1.7974C73.0864 1.51211 74.5532 1.1053 76.3894 0.99582C78.2823 0.860769 80.6468 1.00295 81.8768 1.00911C82.2188 0.995278 85.1617 0.284152 86.7037 0.564337C88.2488 0.819722 90.481 1.66952 92.8934 1.89154C94.026 1.99748 94.8628 1.52655 96.0824 1.8315C96.199 1.86107 96.3157 1.90293 96.4327 1.95415C97.2404 2.29773 98.0209 3.02791 98.9387 3.41922C100.012 3.84682 102.441 4.52478 102.835 4.75039C104.271 5.51297 102.51 4.9968 103.461 5.55791C108.038 8.27963 112.326 12.2829 115.976 15.5286C116.425 15.9278 116.178 14.9996 116.245 15.0439C116.976 15.5851 117.444 15.9628 117.741 16.2284C119.117 17.585 117.734 16.7254 118.228 17.8331C118.565 18.4718 120.172 21.1582 120.912 23.3079C121.732 25.4557 122.421 27.1614 122.847 27.0878C121.895 27.5972 123.1 28.9647 123.243 29.3607C123.732 30.7225 123.04 30.8349 123.363 31.8373C123.426 32.04 123.504 32.2656 123.599 32.521C123.892 33.3347 124.105 31.5457 124.306 32.47C124.543 33.6198 124.386 34.6325 124.198 35.5475C124.103 36.0028 123.999 36.4407 123.927 36.8108C123.89 36.9936 123.864 37.1604 123.844 37.2651C123.82 37.3637 123.826 37.422 123.737 37.2172C123.728 37.1994 123.72 37.18 123.712 37.1592C123.645 37.0048 123.646 36.7484 123.386 36.3379C123.184 35.9435 122.268 35.2949 121.491 35.3152C121.078 35.3013 120.8 35.4583 121.006 35.4261C122.331 35.0407 124.298 34.5287 122.689 34.3351C125.37 34.2441 125.786 33.6892 128.737 33.1568C129.488 33.0357 130.528 33.5872 132.042 33.206C132.548 33.0796 132.477 32.3967 133.262 32.3239C135.065 32.1625 136.774 32.7906 138.979 32.7848C139.114 32.7846 139.249 32.7841 139.386 32.7833C143.553 32.8196 148.042 32.5044 152.851 34.6323C154.046 35.2338 153.68 35.627 154.887 36.56C154.989 36.6504 155.127 36.7573 155.278 36.8631C155.476 36.9977 157.484 37.6631 158.409 38.4053C158.97 38.83 161.664 41.3988 162.215 41.9231C163.144 42.7558 163.746 42.4038 164.191 42.9646C165.46 44.6254 163.562 44.1656 166.295 44.9695C166.355 46.0728 167.42 47.1973 166.986 48.1647C167.716 48.231 168.046 48.7478 168.353 49.5049C168.504 49.9474 168.665 50.4735 169.123 50.9357C170.132 51.9527 172.394 51.7942 170.874 53.2761C171.449 53.6358 173.596 56.1065 173.885 56.6736C174.761 58.1583 173.829 57.5951 174.435 58.7222C174.44 58.7326 174.446 58.7415 174.452 58.7492C174.557 58.9336 174.957 58.6781 175.362 60.3696C175.933 61.806 175.603 68.3234 175.475 68.5993C174.531 72.7126 175.288 66.3173 174.829 65.2835C174.945 65.1159 175.06 64.9493 175.172 64.7686C175.338 62.7371 174.47 63.9421 174.259 64.8053C174.051 65.6777 174.361 67.2857 174.017 67.9618C173.845 68.3 172.799 68.008 172.99 66.9784C172.594 68.0701 172.338 66.5341 172.002 66.9544C171.656 67.4093 171.145 72.3429 171.741 72.4158C171.827 71.4927 171.901 70.341 171.999 69.4086C173.134 68.254 176.253 72.3045 174.728 75.4211C173.863 77.2914 173.222 75.1205 173.411 77.1548C173.459 77.7044 173.559 78.5222 173.596 79.7799C173.734 78.828 173.859 78.0183 173.904 77.1545C173.905 77.1304 173.907 77.1062 173.908 77.0819C174.045 77.0674 174.131 77.0954 174.181 77.1543C174.415 77.4832 173.853 78.5663 173.998 79.1983C174.097 79.5882 174.784 77.3131 174.835 79.3359C173.567 80.9386 174.559 82.4084 173.552 85.3154C173.661 84.4603 173.716 83.6087 173.716 82.7743C171.677 87.1633 174.356 76.618 171.377 85.1346C171.75 84.1267 172.077 83.1049 172.257 82.0451C171.752 82.4511 170.774 81.4128 170.434 81.7816C169.56 82.6995 169.433 84.3007 168.768 85.479C168.483 85.9845 168.363 85.5161 168.339 85.5593C167.941 86.2297 168.432 86.3079 168.096 86.9297C167.692 87.7379 165.756 89.5079 165.509 89.8482C164.903 90.7742 166.791 89.9644 166.777 90.0786C166.728 90.4893 166.404 90.9135 166.142 91.2705C165.867 91.6468 165.633 91.9374 165.872 92.1231C166.028 91.9312 166.203 91.7146 166.382 91.4771C169.036 88.5233 173.149 80.6561 169.641 89.1544C171.865 87.3197 172.788 88.7235 170.344 92.1783C169.287 93.5799 169.033 93.6438 168.825 93.5786C168.617 93.5181 168.463 93.3368 167.591 93.8327C167.374 94.1648 163.462 96.6104 163.458 96.9681C163.124 96.0842 161.533 96.032 161.846 94.7458C161.896 94.5682 163.335 93.7409 162.43 93.3898C161.98 93.2173 160.873 92.8835 160.735 92.3879C160.639 92.8433 160.534 93.3467 160.411 93.8221C158.329 95.0246 157.819 94.7999 156.363 94.7462C156.521 94.9699 158.111 95.5119 156.251 95.9427C156.154 95.9611 155.92 95.6238 154.964 95.8031C153.023 96.1643 152.592 96.1999 153.525 94.5361C152.782 94.9985 152.113 95.3249 151.493 95.5802C150.043 96.0895 148.492 95.6276 145.515 96.4371C146.49 97.7979 148.127 97.2807 151.182 96.1176C151.421 96.4226 151.585 96.7474 151.844 97.0443C147.239 97.4605 149.441 96.9153 146.869 98.1832C146.229 98.4909 142.531 98.8545 143.908 99.6876C144.235 99.8877 146.515 99.4973 146.316 99.9137C146.279 100 143.517 100.615 143.257 100.549C139.972 99.8055 145.451 98.1084 136.899 99.858C136.662 99.9149 136.658 100.363 136.178 100.529C136.023 100.585 135.873 100.622 135.728 100.652C135.65 100.668 135.583 100.68 135.509 100.695C135.411 100.719 135.315 100.743 135.194 100.796C134.767 100.939 134.333 101 133.946 101.729C133.361 102.974 134.069 104.21 133.597 105.526C133.27 106.58 132.777 106.31 132.388 105.189C132.212 104.625 132.052 103.836 132.222 102.756C132.344 101.718 133.193 100.162 134.445 99.5419C135.024 99.2348 135.145 99.2593 135.35 99.2014C135.514 99.1677 135.647 99.1503 135.779 99.1362C136.014 99.1152 136.233 99.1116 136.421 99.1226C136.494 98.9584 136.386 98.8413 136.141 98.7662C136.025 98.7276 135.838 98.707 135.625 98.7011C135.495 98.7039 135.38 98.7045 135.201 98.7292C134.983 98.7807 134.871 98.7259 134.169 99.0813C133.155 99.5137 131.987 100.794 131.578 102.076C131.133 103.35 131.11 104.485 131.164 105.519C131.299 107.564 131.818 109.356 132.326 110.985C133.394 114.226 134.359 116.665 134.478 116.963C134.66 117.332 134.782 117.577 134.867 117.728C135.062 118.074 135.097 117.988 135.051 117.678C134.96 116.896 133.902 114.156 134.065 113.834C134.179 113.623 136.334 112.918 134.31 111.691C133.709 111.323 133.968 113.685 133.265 112.478C132.56 111.254 133.38 111.541 133.389 111.432C133.419 111.058 132.696 109.704 132.729 109.474C133.269 106.078 135.351 105.839 133.51 110.548C134.749 111.912 134.589 107.872 135.727 109.689C137.119 111.845 136.816 113.9 136.87 114.21C137.5 117.547 137.629 114.138 138.316 116.795C138.376 117.069 138.433 117.427 138.473 117.863C138.649 120.36 136.853 114.435 137.881 119.953C138.422 124.699 138.682 122.114 139.92 122.367C140.203 122.428 140.725 125.146 140.351 121.43C140.031 121.35 139.606 121.192 139.297 120.984C139.45 120.085 140.784 118.343 140.732 117.8C140.68 117.118 140.55 116.604 140.417 116.228C140.054 115.241 139.751 115.123 140.066 113.905C139.418 115.212 139.466 113.438 139.046 112.952C137.519 111.152 138.198 113.948 137.519 108.987C137.26 109.741 137.007 110.451 136.767 111.208C136.545 110.655 136.326 110.101 136.117 109.544C136.811 108.334 135.885 105.545 137.675 107.812C136.994 104.569 137.008 104 136.268 103.449C136.135 103.332 136.163 103.057 136.313 102.917C136.141 102.751 135.53 102.336 135.522 102.216C135.518 102.014 135.61 101.846 135.757 101.738C136.488 101.372 137.465 102.269 137.185 102.732C137.582 102.684 137.915 102.66 138.038 102.653C138.77 102.616 137.428 103.308 138.04 103.371C138.229 103.386 140.294 102.976 140.371 103.16C140.808 104.329 137.179 103.967 144.286 103.651C144.288 102.531 141.073 103.244 141.74 101.955C142.451 100.574 144.526 101.986 144.691 100.386C144.877 100.616 144.975 100.816 145.148 101.084C147.863 99.9671 148.12 101.212 149.053 101.33C149.899 101.417 151.964 101.171 153.539 100.472C154.665 99.952 155.132 99.5338 153.282 99.8582C152.769 99.9726 152.166 100.059 151.427 100.138C151.97 99.9302 152.531 99.7247 153.107 99.4404C153.52 99.2292 153.938 99.0212 154.349 98.8049C155.451 100.844 154.476 100.327 159.251 98.6349C160.296 98.2424 161.1 98.9918 161.555 97.3983C161.962 98.5643 164.686 96.2026 165.03 96.0762C167.496 95.7144 160.985 101.094 159.269 99.3334C158.455 100.59 158.023 99.5962 156.818 100.255C155.501 100.968 155.086 101.299 153.955 101.467C153.416 101.594 152.852 101.638 152.185 101.624C151.43 102.232 152.353 102.274 154.072 101.747C156.035 101.186 158.819 100.155 155.217 102.645C155.039 102.77 154.834 102.906 154.616 103.047C152.343 104.214 149.992 104.837 146.906 105.575C145.387 105.929 143.736 106.271 142.02 106.614C141.163 106.786 140.282 106.959 139.427 107.135C139.002 107.224 138.579 107.314 138.205 107.403C138.03 107.445 137.854 107.49 137.746 107.525C137.701 107.54 137.666 107.556 137.715 107.548C137.738 107.545 137.801 107.531 137.919 107.493C138.004 107.46 138.293 107.394 138.92 107.032C139.451 106.741 140.018 106.206 140.343 105.694C140.675 105.186 140.8 104.767 140.859 104.546C140.964 104.088 140.93 104.215 141 104.463C141.118 105.002 141.449 106.049 141.862 107.119C142.697 109.368 143.841 111.621 144.905 115.014C147.405 126.468 146.279 134.182 145.85 138.622C145.777 139.168 145.694 139.716 145.6 140.262C144.37 145.092 142.452 146.167 141.203 147.582C139.871 148.847 138.697 149.746 137.598 150.569C135.411 152.189 133.491 153.447 131.896 154.597C127.557 157.55 123.702 158.475 120.863 159.452C113.598 161.204 109.919 160.768 103.679 160.41C103.067 160.354 100.993 160.196 98.6144 159.722C94.7309 158.888 92.7655 157.27 91.4977 156.266C90.2852 155.218 89.9237 154.564 90.8631 154.765C91.1897 154.911 96.7538 157.716 92.8497 154.089C93.3437 155.169 90.716 153.806 90.5242 153.699C86.3138 151.818 87.0883 153.035 83.9888 150.275C83.4255 149.759 82.7395 149.097 81.9115 148.274ZM67.4423 141.028C71.8288 139.427 72.8916 139.071 72.3395 138.774C71.8473 138.469 70.2084 138.286 71.0204 136.972C69.5827 137.447 68.424 137.911 67.2848 138.349C67.6286 138.346 67.9667 138.345 68.3204 138.34C68.3217 138.339 68.323 138.339 68.3243 138.338C68.0153 139.24 67.7256 140.136 67.4423 141.028ZM24.727 43.7006C24.5265 44.0861 24.3323 44.4711 24.1121 44.865C23.0311 45.3191 21.9702 45.7919 20.9275 46.2876C20.961 46.0674 20.9909 45.8472 21.0276 45.6261C22.2357 44.9635 23.4711 44.3339 24.727 43.7006ZM137.758 98.6073C139.654 99.0437 139.307 97.8055 141.718 98.0473C141.302 97.1514 140.849 96.2815 140.418 95.3969C138.638 95.7994 138.367 96.1793 136.175 96.3169C136.493 96.5688 136.788 96.8294 137.079 97.092C137.407 96.9724 137.754 96.8435 138.068 96.7376C138.712 97.493 135.515 98.1366 137.751 98.6103C137.754 98.6093 137.756 98.6083 137.758 98.6073ZM154.64 94.4679C155.564 94.2453 159.039 93.1634 159.254 92.5674C160.154 90.7374 151.505 95.6234 157.643 91.5144C157.532 91.3612 157.48 91.183 157.399 91.0173C156.226 91.5199 154.992 91.9965 153.695 92.4781C154.045 93.1287 154.277 93.8183 154.64 94.4679ZM99.0231 147.556C99.3346 147.782 100.251 148.148 100.701 148.079C102.726 148.214 104.928 147.929 103.656 147.268C103.291 147.072 101.968 147.355 100.81 147.469C100.615 147.625 100.184 147.633 99.9586 147.51C99.5297 147.269 100.337 146.952 99.3282 146.684C99.2254 146.96 99.0908 147.255 99.0268 147.556C99.0255 147.556 99.0243 147.556 99.0231 147.556ZM94.8624 149.418C96.1509 150.218 97.538 150.931 98.9591 151.317C98.2389 150.307 96.2688 149.613 96.7558 148.651C97.1217 148.8 97.4816 148.933 97.8404 149.049C97.9677 149.391 98.1035 149.728 98.2535 150.062C99.4387 150.01 99.1177 149.643 100.348 150.048C100.486 150.08 100.64 150.117 100.814 150.159C100.673 149.933 100.553 149.722 100.441 149.526C100.001 148.113 100.281 148.022 96.7941 147.362C97.8371 147.019 99.0263 144.482 96.2142 144.797C95.6719 144.843 96.7786 146.057 96.7594 146.106C96.5114 146.853 95.4937 146.665 95.2771 147.384C95.1805 147.717 96.0189 148.341 95.8946 148.786C95.8329 149.011 94.6398 148.895 94.8624 149.418ZM94.9747 144.677C95.59 144.613 95.1902 142.868 94.1015 142.136C92.3854 140.972 94.0329 143.955 94.9747 144.677ZM24.7336 43.6963C24.7314 43.6978 24.7292 43.6992 24.727 43.7006C24.7278 43.6992 24.7285 43.6977 24.7293 43.6963C24.7307 43.6963 24.7322 43.6963 24.7336 43.6963ZM150.307 95.5863C150.655 95.3223 151.083 95.0975 151.224 94.9364C151.809 94.5643 152.219 94.2569 152.027 93.965C152.585 93.8667 153.134 93.7712 153.672 93.679C153.598 93.5119 153.519 93.3462 153.446 93.1808C152.613 93.4559 151.758 93.7295 150.849 94.0407C150.655 94.0707 150.025 94.2068 149.429 94.2937C149.714 94.7278 149.979 95.1677 150.307 95.5863ZM164.233 88.4091C165.454 86.9828 163.826 87.6971 163.767 87.1301C163.714 86.5752 164.839 85.5383 164.255 85.3636C163.708 86.1442 163.036 86.9625 162.297 87.7934C162.961 87.976 163.579 88.2278 164.235 88.4061C164.234 88.4071 164.233 88.4081 164.233 88.4091ZM39.2512 132.183C39.2513 132.244 39.2363 132.284 39.2143 132.317C39.4306 133.209 39.0377 133.486 40.5142 134.651C40.5134 134.65 40.5126 134.649 40.5118 134.647C40.2802 133.958 40.1401 133.285 39.6744 132.079C39.731 131.909 39.5028 130.198 38.8987 128.256C38.9203 128.423 38.8955 128.392 38.8765 128.36C38.8556 128.322 38.8312 128.258 38.8052 128.185C38.7727 128.268 38.7443 128.337 38.7179 128.383C38.6897 128.424 38.6713 128.458 38.6167 128.319C38.6396 130.078 39.1974 131.436 39.2512 132.183ZM130.166 103.433C130.368 103.914 130.522 103.301 130.922 102.149C131.236 101.014 132.572 99.0699 133.747 98.375C134.296 98.0402 134.552 97.9634 134.672 97.8917C134.814 97.8193 134.93 97.7584 134.999 97.707C135.304 97.4631 135.333 97.3143 135.179 97.2237C135.099 97.1803 134.983 97.1502 134.793 97.1519C134.678 97.1586 134.545 97.1735 134.372 97.2102C134.293 97.2263 134.174 97.2566 133.994 97.3209C133.819 97.3847 133.609 97.4666 133.306 97.636C132.258 98.0891 130.939 99.4246 130.465 100.689C129.953 101.95 129.995 102.906 130.166 103.433ZM13.0462 88.4045C10.4985 87.7314 11.7151 92.09 15.4744 94.7094C15.7802 94.9345 14.1202 92.5673 14.9307 92.9583C15.0038 92.998 16.0749 94.1226 16.5089 94.2287C16.938 94.3375 16.9828 93.6991 17.5811 93.968C17.9191 94.1181 18.2898 94.4387 18.6849 94.7982C19.4602 95.516 20.2449 96.5831 20.8821 96.6986C20.9936 96.7205 20.346 95.2201 20.2968 95.136C20.02 94.6991 19.645 94.36 19.2484 94.1167C18.4674 93.6437 17.6663 93.4268 17.548 93.3227C16.6384 92.4969 17.2616 92.1358 17.1549 91.8066C16.9621 91.1905 16.0503 90.6704 16.0175 90.601C15.2039 88.8651 17.9369 92.0115 18.5319 92.1754C19.6808 92.5572 19.6482 91.8986 20.7209 92.3358C21.1799 92.5571 21.7723 92.9536 22.4837 93.492C22.7713 93.7294 25.5545 96.2486 22.4509 92.424C23.8506 93.4018 24.4798 93.6666 24.8814 93.7882C25.2641 93.8936 25.3365 93.8156 25.2088 93.6398C24.8942 93.2744 24.1147 92.5216 22.0185 90.7665C20.4624 89.5926 18.5878 87.8212 18.1014 87.4869C17.4832 87.0515 17.7589 88.3178 17.2394 88.184C16.0446 87.88 14.7849 86.5922 14.1702 87.3236C12.8858 88.8844 15.4497 89.8561 16.3541 91.2598C15.925 91.4357 15.5715 91.6753 15.0417 91.7296C15.7744 91.7124 13.2134 88.4634 13.0492 88.402C13.0482 88.4028 13.0472 88.4037 13.0462 88.4045ZM35.0765 103.508C35.0161 104.104 34.9941 104.517 35.0142 104.875C35.0786 106.048 35.7436 106.272 35.2509 107.978C36.4536 109.81 36.2235 106.103 36.2676 105.665C36.3008 105.334 36.3624 105.056 36.4398 104.814C36.7324 103.342 37.7961 103.161 36.5346 100.272C36.3484 101.826 35.6891 102.639 35.0765 103.508ZM19.0714 90.8055C20.552 91.3521 18.6873 89.5646 18.7061 89.387C18.8212 87.7916 24.0818 93.005 19.0714 90.8055ZM106.086 151.366C106.859 151.452 106.401 150.819 107.087 150.672C107.768 150.533 110.087 151.083 110.03 150.697C109.948 150.333 105.808 149.273 109.986 149.123C109.845 148.91 109.893 148.752 109.826 148.559C108.692 148.551 107.543 148.508 106.412 148.438C106.998 149.085 107.62 149.755 108.221 150.363C107.549 150.831 107.2 150.189 107.168 150.188C107.168 150.189 107.168 150.189 107.168 150.19C105.957 150.189 104.353 151.154 106.086 151.366ZM51.4437 141.853C50.7362 143.219 53.0649 142.213 53.8122 142.258C54.5708 142.311 55.3311 143.124 55.1716 142.393C54.2503 141.652 51.533 141.7 51.4431 141.855C51.4433 141.855 51.4435 141.854 51.4437 141.853ZM35.6561 116.339C36.1041 118.283 36.4853 117.945 36.1336 120.359C36.4971 120.251 36.8686 120.142 37.2265 120.034C37.1556 118.135 36.0952 118.319 36.4353 116.101C36.4917 115.74 37.3746 116.479 37.0355 114.863C36.5996 115.348 36.1145 115.856 35.6561 116.339ZM37.4418 125.914C37.2704 123.71 34.2125 122.082 35.7608 126.113C35.9959 126.712 37.5804 127.545 37.4418 125.914ZM89.1164 142.627C91.7595 145.346 89.0254 141.992 88.6472 140.958C89.8608 142.075 90.5877 142.735 90.9857 143.084C91.532 143.561 91.4337 143.443 91.0534 143.014C90.2213 142.081 88.061 139.594 88.2625 138.613C87.1556 138.119 84.8207 137.371 86.4431 139.206C87.0733 139.96 87.1268 139.388 87.1691 139.43C88.3613 140.753 87.6715 141.127 89.1164 142.627ZM31.6984 98.3921C31.969 98.4784 31.6846 97.7677 32.6607 98.113C33.161 98.3001 33.8786 98.9557 34.2453 99.5458C34.6284 100.128 34.7969 100.582 34.9802 100.597C35.1343 100.63 35.0689 99.7314 34.0452 98.5926C33.5374 98.0369 32.7705 97.5736 32.1655 97.3706C31.553 97.1581 31.1229 97.1254 30.8802 97.1423C30.3971 97.1877 30.2329 97.4846 30.2766 97.7425C30.3493 98.0254 30.5783 98.1616 31.6984 98.3921ZM34.2323 114.324C34.6784 116.221 36.4437 113.021 36.4181 112.609C36.1716 108.967 34.8359 114.414 34.2323 114.324ZM81.7781 140.723C82.1192 140.484 82.2459 140.351 82.4084 140.21C82.5654 140.073 82.7462 139.964 82.8887 139.829C83.0034 139.726 83.085 139.599 83.1169 139.44C83.2164 139.063 82.9065 138.374 81.9883 138.046C81.0899 137.711 79.9139 137.81 78.9501 138.007C78.6684 138.391 78.419 138.78 78.1962 139.157C78.5854 138.158 79.6007 136.967 79.7031 136.6C79.8331 136.19 78.1445 136.791 75.7749 139.078C79.0462 137.303 76.5922 139.287 76.6218 139.354C77.0706 140.425 78.2961 139.948 79.5093 139.632C80.7602 139.276 81.7836 139.437 81.7759 140.724C81.7766 140.724 81.7774 140.724 81.7781 140.723ZM26.1061 96.4888C25.3615 96.1804 24.1042 95.5224 23.1206 94.9598C22.135 94.4088 21.3782 94.1559 21.9169 95.3213C23.363 96.004 24.7491 96.3934 26.1061 96.4888ZM141.148 130.158C141.769 128.501 141.779 126.939 141.685 124.858C140.905 126.747 140.785 125.515 140.566 124.901C140.237 123.969 140.323 126.247 140.26 126.256C139.47 126.219 139.361 124.79 139.376 128.059C139.112 127.247 138.834 126.454 138.548 125.659C138.548 128.128 138.008 128.71 137.337 130.23C138.905 128.778 137.912 130.723 138.544 132.578C138.862 133.524 140.842 131.018 141.148 130.152C141.148 130.154 141.148 130.156 141.148 130.158ZM83.7463 142.269C84.2621 142.382 84.8252 142.414 85.3685 142.51C85.7422 142.837 86.113 143.171 86.4881 143.502C86.3604 143.718 86.2187 143.935 86.1047 144.15C86.5226 144.666 86.5781 144.245 86.7403 144.362C86.7394 144.363 86.7385 144.364 86.7376 144.364C87.4247 144.86 87.9813 145.284 88.4529 145.687C89.575 146.643 90.2006 147.484 91.0573 148.935C91.5452 148.374 92.0332 147.813 92.5211 147.253C92.1031 146.983 91.6866 146.703 91.2745 146.42C90.812 146.538 90.3445 146.649 89.8771 146.759C89.6038 146.202 89.3409 145.648 89.0822 145.089C89.0715 145.084 89.0608 145.079 89.0501 145.073C88.6274 144.858 88.1425 144.587 87.7701 144.411C87.6706 142.493 88.6686 143.571 89.601 144.507C90.1688 145.078 90.7197 145.594 90.9543 145.366C91.1009 145.227 90.6932 144.676 90.0891 144.005C89.0268 142.829 87.3453 141.275 86.8265 141.109C86.7107 141.075 86.4268 142.962 85.6316 141.053C85.5056 140.78 87.7666 138.192 84.2754 138.811C83.8403 138.96 83.294 141.149 83.7463 142.269ZM99.6033 155.343C99.5378 155.28 99.4804 155.221 99.4308 155.166C98.7945 154.626 99.0086 154.446 99.5612 154.438C101.139 154.369 106.781 155.858 103.2 154.179C104.663 153.331 104.377 153.322 103.132 152.318C103.025 152.23 103.969 152.053 103.895 152.01C102.701 151.421 101.203 151.46 101.324 150.59C100.994 150.588 100.683 150.579 100.354 150.569C100.998 151.126 100.669 151.441 100.054 151.688C99.5404 151.913 98.7534 151.966 98.2341 152.098C97.7124 152.226 98.6076 152.689 98.1642 152.811C97.9764 152.869 96.7897 152.082 96.6154 152.298C96.2217 152.799 96.4553 154.072 98.1644 155.145C98.1642 155.146 98.164 155.147 98.1638 155.147C98.5605 155.233 98.969 155.294 99.4008 155.333C99.468 155.336 99.5355 155.339 99.6033 155.343ZM43.9443 144.406C43.8851 143.078 42.2489 142.085 45.98 142.94C45.8797 142.657 45.7813 142.374 45.6968 142.092C45.1043 141.888 44.5505 141.677 43.9725 141.426C40.5475 143.767 39.633 138.091 40.1422 141.551C40.2015 141.934 41.7622 142.571 39.9876 142.293C39.9892 142.294 39.9907 142.296 39.9922 142.298C42.0752 143.363 42.4738 143.041 43.9443 144.406ZM58.0577 147.745C60.6636 146.65 58.8955 146.329 56.9992 146.022C55.057 145.708 52.6211 145.313 53.4465 145.937C53.5972 146.146 58.5297 146.726 58.0577 147.745ZM30.736 122.488C30.7909 124.7 32.1436 124.77 32.6154 124.53C33.0888 124.289 32.5296 122.793 32.5976 122.588C32.8211 121.935 33.0475 123.293 33.3555 122.44C33.4535 122.157 33.7743 118.332 33.71 118.152C33.3499 117.202 32.2994 118.655 32.1616 118.387C31.7094 117.505 32.2357 116.237 31.6366 116.008C30.3574 115.492 31.7684 117.731 31.8056 118.117C31.9129 119.286 31.2015 119.215 31.0956 120.09C30.9909 120.981 31.2566 121.527 31.2405 122.313C31.2349 122.568 30.7356 122.378 30.736 122.488ZM34.0841 129.608C34.0137 129.511 33.9463 129.432 33.8822 129.37C33.5553 129.012 33.2959 129.052 33.1432 129.534C32.6787 130.44 32.6991 133.489 33.1575 134.086C33.946 135.126 34.0623 133.977 34.2221 132.788C34.3742 131.58 34.4469 130.102 34.0841 129.608ZM93.6915 148.672C91.5627 147.891 95.0601 151.559 96.6563 151.963C96.4728 151.587 94.3637 148.951 93.6915 148.672ZM80.9495 141.056C81.5612 140.642 81.3238 140.242 80.6572 140.055C79.9867 139.874 78.869 140.069 78.2067 140.521C78.0134 141.953 78.6452 141.266 79.524 140.775C80.387 140.321 79.9215 141.816 80.9495 141.056ZM29.7017 101.936C29.7998 101.954 30.3039 101.949 30.5309 101.949C30.6508 101.951 30.7209 101.93 30.8479 101.98C30.9711 102.027 31.1334 102.169 31.2767 102.346C31.5695 102.706 31.7935 103.132 31.9441 103.184C32.0823 103.249 32.2141 102.925 32.007 102.079C31.9828 102.009 31.8191 101.549 31.4251 101.222C31.0483 100.881 30.3568 100.813 29.5851 100.775C28.6399 100.712 27.8455 100.6 27.6899 100.63C26.9328 100.775 28.2951 101.646 29.4477 101.887C29.5399 101.907 29.6247 101.924 29.7017 101.936ZM73.0744 146.716C73.6356 145.497 74.509 145.243 73.3449 144.454C73.3437 144.455 73.3425 144.455 73.3413 144.456C73.802 144.225 74.1961 144.155 74.5193 144.188C76.2955 144.083 77.0655 145.119 77.5534 144.84C79.4225 143.533 76.7856 143.238 77.6139 142.101C75.7695 143.717 75.4189 143.098 74.2564 143.168C74.0221 143.161 73.7314 143.193 73.3566 143.299C72.892 143.417 71.3304 144.698 71.2181 145.182C71.1045 145.661 72.4574 146.437 73.0744 146.716ZM20.0632 98.0428C21.8017 100.004 24.5427 99.7734 21.941 97.754C20.7885 96.7068 19.1183 96.8903 20.0632 98.0428ZM159.788 98.0919C159.292 97.881 158.793 97.6693 158.287 97.4598C159.022 97.0258 159.752 96.5747 160.467 96.1029C159.924 96.5193 159.368 96.9221 158.803 97.3172C160.307 96.7768 161.316 97.0838 159.792 98.0901C159.791 98.0907 159.789 98.0913 159.788 98.0919ZM165.833 46.1787C165.572 45.3258 163.666 45.1752 163.745 45.3799C164.264 46.7974 166.16 47.3254 165.833 46.1787ZM94.269 153.567C96.966 155.314 95.8556 152.526 94.5812 151.484C95.2732 152.395 92.8803 152.543 94.269 153.567ZM174.829 65.2835C174.656 65.5261 174.481 65.7761 174.303 66.0389C174.567 65.1863 174.719 65.0253 174.829 65.2835ZM29.914 103.698C29.8898 103.726 29.7717 103.743 29.5263 103.612C29.2804 103.485 29.09 103.241 29.079 103.232C29.0598 103.196 29.2255 103.815 29.3217 103.915C29.5508 104.171 29.8908 103.855 30.0734 103.381C30.279 102.905 30.1697 102.388 30.1524 102.648C30.0962 102.682 30.0142 103.579 29.9127 103.697C29.9131 103.697 29.9135 103.697 29.914 103.698ZM163.478 97.0171C163.465 97.0036 163.458 96.9869 163.458 96.9681C163.464 96.9848 163.473 96.9998 163.478 97.0171ZM122.927 27.0427C122.902 27.066 122.876 27.0821 122.847 27.0878C122.873 27.0745 122.898 27.0547 122.927 27.0427ZM28.4976 120.584C26.6862 121.645 27.7704 123.866 28.608 122.038C28.6515 121.933 28.5037 120.82 28.4976 120.584Z" fill="#637231"/>
</svg>
